<svg width="24" height="24" viewBox="0 0 24 24" fill="none" xmlns="http://www.w3.org/2000/svg">
<path d="M10.6553 17.0303L14.625 13.0606L18.5947 17.0303L19.6553 15.9697L15.6857 12L19.6553 8.03026L18.5947 6.96967L14.625 10.9393L10.6553 6.96967L9.59473 8.03026L13.5644 12L9.59473 15.9697L10.6553 17.0303Z" fill="#1D95F6"/>
<path d="M22.125 3H9.12394C8.97115 3.00025 8.82001 3.03151 8.67965 3.09187C8.53929 3.15224 8.41265 3.24046 8.30737 3.35119L0.75 11.3261V12.6739L8.30737 20.6488C8.41265 20.7595 8.53929 20.8478 8.67965 20.9081C8.82001 20.9685 8.97115 20.9997 9.12394 21H22.125C22.4233 20.9997 22.7092 20.881 22.9201 20.6701C23.131 20.4592 23.2497 20.1733 23.25 19.875V4.125C23.2497 3.82674 23.131 3.54079 22.9201 3.32989C22.7092 3.11899 22.4233 3.00035 22.125 3ZM21.75 19.5H9.28519L2.25 12.0761V11.9239L9.28519 4.5H21.75V19.5Z" fill="#1D95F6"/>
</svg>
